<svg version="1.1" xmlns="http://www.w3.org/2000/svg">
  <symbol viewBox="0 0 52 52" >
    <g id="searchIcon" transform="rotate(-45 26 26)">
      <circle cx="27" cy="20" r="17" fill="#000" style="fill: var(--icon-color)"/>
      <circle cx="27" cy="20" r="13" fill="#fff" style="fill: var(--icon-bg-color)"/>
      <rect x="25" y="35" width="4" height="16" fill="#000" style="fill: var(--icon-color)"/>
    </g>
  </symbol>
  <symbol viewBox="0 0 24 24">
    <g id="clearIcon" transform="rotate(-45 12 12)">
      <rect x="11" y="5" width="2" height="14" fill="#000" style="fill: var(--icon-color)"/>
      <rect x="5" y="11" width="14" height="2" fill="#000" style="fill: var(--icon-color)"/>
    </g>
  </symbol>
  <symbol viewBox="0 0 20 20">
    <path id="arrowIcon" fill="#000" style="transform: rotate(var(--rotation-angle)); transform-origin: center;" d="M15.795 11.272L7.795 16.272C6.79593 16.8964 5.5 16.1782 5.5 15L5.5 5.00002C5.5 3.82186 6.79593 3.1036 7.795 3.72802L15.795 8.72802C16.735 9.31552 16.735 10.6845 15.795 11.272Z"/>
  </symbol>
  <symbol viewBox="0 0 1024 1024">
    <path id="doubleArrowIcon" fill="#000" style="transform: rotate(var(--rotation-angle)); transform-origin: center;" d="M542.823135 465.600028c107.883682-82.340127 215.767365-164.680253 323.651047-247.013155 38.414676-29.325779 93.778915-1.92543 93.778915 46.390941v494.044372c0 48.325402-55.364239 75.71672-93.778915 46.398166L542.823135 558.398166c-30.611807-23.363449-30.611807-69.432882 0-92.798138zM82.022232 465.600028c107.883682-82.340127 215.767365-164.680253 323.651047-247.013155 38.414676-29.325779 93.780721-1.92543 93.780721 46.390941v494.044372c0 48.325402-55.366045 75.71672-93.780721 46.398166L82.022232 558.398166c-30.602776-23.363449-30.602776-69.432882 0-92.798138z"/>
  </symbol>
</svg>